<?xml version="1.0" encoding="UTF-8"?><svg id="Layer_1" xmlns="http://www.w3.org/2000/svg" viewBox="0 0 1866 924"><defs><style>.cls-1{fill:#fff;}</style></defs><polygon class="cls-1" points="0 553 468 553 468 394 221 394 221 328 376 328 376 231 221 231 221 165 468 165 468 17 0 17 0 553"/><path class="cls-1" d="m833,17h-321v536h221v-172h103c122,0,189-71,189-164v-39c0-93-7-16-192-16Zm-26,216c0,23-11,35-39,35h-35v-112h35c28,0,39,11,39,35v41Z"/><rect class="cls-1" x="1065" y="273" width="22" height="28"/><path class="cls-1" d="m1734,353c-22,31-58,56-102,56s-79-32-79-82v-87c0-5,27-82,79-82s79,25,102,56l131-88C1832,54,174,0,1614,0s-285,97-285,235v1c0,138,112,235,285,235s217-56,252-127l-132-89Z"/><rect class="cls-1" x="1065" y="17" width="22" height="215"/><path class="cls-1" d="m86,898c0,3-1,6-3,8-2,3-4,5-6,7-3,1-5,2-8,2-2,0-5,0-8,2,0,0-2,0-3,2-2,0-3,0-5-2-2-1-3-2-5-2-2,0-5-1-8-1-3,0-6-1-7-3-3-3-5-6-7-11-2-4-3-9-4-14-1-5-2-1-2-15,0-5,0-9,0-13s0-12,1-19c0-6,2-12,4-18h0c0-2,0-3,0-4,0,0,0-2,0-2s0-1,0-2c0,0,0-1-1-1,3-6,4-13,6-2,1-7,2-14,3-21,0-7,1-14,2-21,0-7,2-14,4-2,0-1,0-2,0-4,0-1,0-3,0-4s0-7,1-1c0-3,1-7,1-11,0-1,0-2,0-4,0-1,0-3,0-4,0-9,0-17,1-25s1-17,1-25,0-9-1-13c0-4-1-8-1-13s0-4,0-6c0-2,0-4,2-5,4-3,9-4,15-4s8,1,11,4c0,0,0,0,0,2s0,2,0,3c0,0,0,2,0,3h0c0,2,0,2,0,2,1,2,2,5,3,7,0,3,0,5,0,8s0,5,0,7c0,2,0,5,0,7s0,7,0,11c0,4,0,7,0,11s0,19-1,28-2,18-2,28c0,8-1,16-3,23-2,8-3,15-3,23,0,2,0,3,0,5,0,1,0,3,0,5s0,9-3,13-3,9-3,14,0,4,1,6c-1,3-2,7-3,11,0,4-2,9-2,13,0,5-1,9-2,13,0,4,0,8,0,12s0,9,2,14c1,5,3,9,6,13,2,0,4,0,7,0s5,0,8,0c3,0,5,0,8,1,2,0,4,2,5,5,0,0,0,0,0,1h0Z"/><path class="cls-1" d="m306,69c0,2,0,4-2,6,0,2,0,4,0,7-2,0-3,0-5,2-1,1-2,2-3,4,0,1-1,3-2,4,0,1-2,3-2,4,2,7,2,14,3,21,0,7,0,14,1,21,0,9,2,18,5,27,2,9,3,18,3,27s0,5,0,8c0,2,0,5,0,7s0,3,0,5c0,2,0,3,0,5,0,6,0,11-2,17-1,6-3,11-3,17-2,2-4,4-6,7-2,3-3,5-5,7-2,2-4,4-6,6-2,2-5,3-9,3,0,2-2,3-3,4-2,0-3,2-4,4h0c-5,0-9,0-13-2-4-1-7-3-1-5-3-2-6-4-9-6-3-2-7-4-11-5-5-4-1-9-15-15-4-5-1-1-15-15-1-4-3-7-5-1-2-3-4-5-7-9,0-1-2-3-2-4,0-1-1-3-2-4,0-2-2-3-3-3-1,0-2-1-3-2-2-6-4-12-7-17-3-5-6-1-1-15-1,2-2,4-3,7,0,2-1,5-2,7,0,2-1,5-2,7,0,2-2,5-3,7h0c0,2,0,2,1,3,0,0,1,0,1,2s0,0,0,0c0,0,0,0,0,0,0,0-2,2-2,3,0,1-2,2-3,2,0,0,0,2,0,3v3c0,6,0,11-2,17-1,6-2,11-2,17v4c0,1,0,3,0,4,0,1,0,2,2,4,0,1,1,2,1,3s0,3-2,4c1,0,3,2,5,3s3,2,5,4,3,3,4,5c0,2,1,3,1,5s-1,6-3,7c-2,1-5,2-8,3-3,0-6,2-9,2-3,0-6,2-8,4h0c-2,0-4,0-5-2-1-1-3-2-5-2-4-6-6-13-8-2-1-8-2-15-2-22s0-17,2-25c1-8,3-17,5-25s4-16,7-24c2-8,5-16,7-24h0c0-2,0-3,0-3,0,0,0,0,0-2s0,0,0,0c0-2,1-4,2-6,0-2,1-4,2-6,1-5,2-11,2-17,0-6,0-11,0-17,0-6,0-11,0-17,0-6,0-11,2-17,2-2,3-3,4-5,1-2,3-3,5-5,4,0,8,0,12,2,4,0,8,3,11,5,2,8,4,17,5,25,0,8,2,17,5,25h0c0,2,0,2,2,2,1,0,2,0,2,1,0,0,0,1,0,2,0,0,0,2,0,2v5c0,2,0,3,1,5s2,3,4,3c0,6,2,12,4,17,2,5,4,1,7,15,3,5,5,1,8,15,3,5,6,1,9,15,5,4,9,8,13,13,4,5,7,9,11,14,4,4,8,8,12,12,5,3,11,5,18,6,0,0,2-2,2-3v-4c2-1,3-3,3-4,0-1,2-2,3-2,0-5,0-11,1-17,0-6,2-11,4-16,0-2-1-4-1-6s0-4,0-6,0-4,0-5,0-7-2-9c0-1,0-3,0-4,0-1,0-3,2-4-2-4-3-8-4-12,0-4-1-9-1-13s0-5,0-8c-1-3-2-6-2-1v-12c-2-4-2-8-3-11,0-4-2-6-4-8,1-2,2-4,2-6s0-8-2-11-2-7-2-11,0-5,2-8c4,0,9,0,13,1,4,0,8,1,12,1,1,2,3,3,4,4,2,0,3,2,5,3s3,2,5,3c2,0,3,2,4,4Z"/><path class="cls-1" d="m528,69c0,2,0,4-2,6,0,2,0,4,0,7-2,0-3,0-5,2-1,1-2,2-3,4,0,1-1,3-2,4,0,1-2,3-2,4,2,7,2,14,3,21,0,7,0,14,1,21,0,9,2,18,5,27,2,9,3,18,3,27s0,5,0,8c0,2,0,5,0,7s0,3,0,5c0,2,0,3,0,5,0,6,0,11-2,17-1,6-3,11-3,17-2,2-4,4-6,7-2,3-3,5-5,7-2,2-4,4-6,6-2,2-5,3-9,3,0,2-2,3-3,4-2,0-3,2-4,4h0c-5,0-9,0-13-2-4-1-7-3-1-5-3-2-6-4-9-6-3-2-7-4-11-5-5-4-1-9-15-15-4-5-1-1-15-15-1-4-3-7-5-1-2-3-4-5-7-9,0-1-2-3-2-4,0-1-1-3-2-4,0-2-2-3-3-3-1,0-2-1-3-2-2-6-4-12-7-17-3-5-6-1-1-15-1,2-2,4-3,7,0,2-1,5-2,7,0,2-1,5-2,7,0,2-2,5-3,7h0c0,2,0,2,1,3,0,0,1,0,1,2s0,0,0,0c0,0,0,0,0,0,0,0-2,2-2,3,0,1-2,2-3,2,0,0,0,2,0,3v3c0,6,0,11-2,17-1,6-2,11-2,17v4c0,1,0,3,0,4,0,1,0,2,2,4,0,1,1,2,1,3s0,3-2,4c1,0,3,2,5,3s3,2,5,4,3,3,4,5c0,2,1,3,1,5s-1,6-3,7c-2,1-5,2-8,3-3,0-6,2-9,2-3,0-6,2-8,4h0c-2,0-4,0-5-2-1-1-3-2-5-2-4-6-6-13-8-2-1-8-2-15-2-22s0-17,2-25c1-8,3-17,5-25s4-16,7-24c2-8,5-16,7-24h0c0-2,0-3,0-3,0,0,0,0,0-2s0,0,0,0c0-2,1-4,2-6,0-2,1-4,2-6,1-5,2-11,2-17,0-6,0-11,0-17,0-6,0-11,0-17,0-6,0-11,2-17,2-2,3-3,4-5,1-2,3-3,5-5,4,0,8,0,12,2,4,0,8,3,11,5,2,8,4,17,5,25,0,8,2,17,5,25h0c0,2,0,2,2,2,1,0,2,0,2,1,0,0,0,1,0,2,0,0,0,2,0,2v5c0,2,0,3,1,5s2,3,4,3c0,6,2,12,4,17,2,5,4,1,7,15,3,5,5,1,8,15,3,5,6,1,9,15,5,4,9,8,13,13,4,5,7,9,11,14,4,4,8,8,12,12,5,3,11,5,18,6,0,0,2-2,2-3v-4c2-1,3-3,3-4,0-1,2-2,3-2,0-5,0-11,1-17,0-6,2-11,4-16,0-2-1-4-1-6s0-4,0-6,0-4,0-5,0-7-2-9c0-1,0-3,0-4,0-1,0-3,2-4-2-4-3-8-4-12,0-4-1-9-1-13s0-5,0-8c-1-3-2-6-2-1v-12c-2-4-2-8-3-11,0-4-2-6-4-8,1-2,2-4,2-6s0-8-2-11-2-7-2-11,0-5,2-8c4,0,9,0,13,1,4,0,8,1,12,1,1,2,3,3,4,4,2,0,3,2,5,3s3,2,5,3c2,0,3,2,4,4Z"/><path class="cls-1" d="m743,713c-1,2-2,4-2,6,0,2,0,4,0,6s0,5,0,7c0,2,0,4,0,7v4c0,1,0,3-2,4,0,1-1,3-2,4-3,7-4,14-4,22h0c0,3-2,5-3,7,0,2-2,4-2,6,0,2-1,4-2,6,0,2,0,4,0,7-3,7-6,13-11,19-4,6-9,11-13,17-4,2-8,4-11,6-3,3-7,5-1,8-6,2-12,4-18,7-6,3-11,6-16,1-4,0-7,0-11,2-4,0-7,2-11,4h-4c-2,0-3,0-4-1-3,1-5,2-8,3-3,0-5,0-8,0s-7,0-1,0c-3,0-7-1-1-2-2-3-5-5-8-6s-7-3-9-4c-6-8-1-15-12-23-3-7-5-16-8-25,0-3,1-5,2-8,0-3,1-6,1-9,4-1,8-19,14-28,6-8,12-16,2-24,0-1,0-2,0-3,0,0,0-2,0-4,0,0,0,0,1,0s3,0,3-1c0,0,0-2,0-3,7-4,13-1,19-16,6-6,12-11,2-15,0-2,2-3,3-4,1-1,2-3,3-4,6-2,12-4,17-8,5-4,1-7,16-9,3-2,6-3,9-4,3,0,6-1,9-2,1,0,2,0,3,0,0,0,2,0,3,0s7,0,1,2c3,1,7,2,1,2s2,0,2,0c0,0,1,0,2,0,3,4,8,7,13,9,1,3,3,5,4,8,2,2,3,4,5,6s3,4,5,7c1,2,2,5,3,9Zm-29,15c0,0,0-2,0-3-2,0-4-1-6-2-2,0-4-1-6-1s-3,0-4,0c0-1,0-2-2-3s-2-1-3-2c-1,0-2,0-3-1-1,0-2,0-3-2,0-2-1-3-2-5,0-2-2-3-4-4-2,2-4,3-6,4-2,1-5,2-7,3-2,0-5,2-7,4-2,1-4,3-6,5h-5c-1,2-3,4-5,5-2,1-4,3-6,5-3,2-6,3-9,6-3,2-5,5-8,7-3,2-5,5-7,7-2,3-5,5-8,7-3,5-5,1-8,14-3,4-6,8-8,12s-5,9-7,13c-2,5-3,11-3,18v3c0,0,0,2,0,3,3,3,5,6,6,9,2,3,4,5,8,7,4,2,8,2,12,2,4,0,9,0,13,1,9-2,18-5,27-9,9-4,17-9,25-15,1,0,3-2,4-3,2-1,3-2,4-3,0,0,2-2,2-3,0-1,1-2,2-3,2-3,3-5,5-8,2-3,4-5,6-7,0-4,2-8,4-12,2-4,3-8,5-12,2-4,3-8,4-12,1-4,2-8,2-13s0-2,0-3c0-1,0-2,0-3,2-2,2-4,2-7Z"/><path class="cls-1" d="m924,674c0,3,0,6,0,1,0,3,0,6-2,1-2,1-3,3-5,5l-4,6c-1,2-3,3-4,5-2,2-4,3-6,4-2,9-4,17-7,25-3,8-5,16-6,25-2,4-4,9-6,14-1,5-3,1-4,15-1,5-3,1-5,15s-4,9-7,13c-2,5-3,1-5,15-2,5-4,1-8,13,0,0,0,0,0,2s0,5-2,7-2,4-2,6c-3,2-6,5-9,8-3,3-6,6-9,9s-6,6-9,8c-3,2-7,4-11,5-3-2-5-4-8-7-2-2-5-4-8-6-2-9-2-17-3-26s-1-17-2-25c0-5-2-1-4-14-2-4-2-9-2-14s0-2,0-3c0-1,0-2,0-3-2-2-3-5-4-8s-1-7-1-1c0-3,0-7-2-1,0-3-2-6-4-8,0,0,1-2,1-3s0-2,0-3c0,0,0-2,0-3s0-2,0-3c-2-2-3-4-3-5,0-2,0-3-1-5,0-2,0-3,0-5,0-2,0-4,0-6,0-1-1-2-2-3,0,0-1-1-1-2s0-2,1-2c-3-4-5-8-7-12-2-4-4-9-6-13,0-2,0-4,2-5s2-3,3-5h9c9,17,15,34,2,52,5,18,9,36,12,55,0,5,2,11,3,16s2,11,3,16c0,1,0,2,2,4,0,1,1,3,1,4s0,2,0,4c1,0,2,2,3,3,0,1,1,3,2,4,0,1,0,3,1,4,0,1,0,3,2,4,2,0,4-1,6-3,2-2,3-4,5-7s3-5,4-8c1-3,3-5,5-6,0-2,0-4,1-6,0-2,1-4,1-6,2-3,4-6,5-9,2-3,3-6,3-11,0,0,2-1,2-2,0,0,1,0,3,0,0-5,0-1,2-15,2-5,4-1,7-14,0-4,1-9,3-14,1-5,3-9,5-14,0-1,1-3,2-5,0-2,1-4,1-5s0-2,0-2c0,0,0-1,0-2s0-3,2-4,2-2,3-4c0-4,0-9,1-13,0-4,3-8,6-12,0-7,2-13,4-19,2-6,4-12,7-18h11c0-4,2-6,5-6s4,0,6,1c2,4,3,9,3,15,0,5,1,1,1,15Z"/><path class="cls-1" d="m1133,862c0,3-2,5-4,7-2,2-4,3-7,4-3,0-5,2-8,2s-5,0-7,0-2,0-3,0c0,0-2,0-3,0s-1,0-1,1,0,2-1,2c0,0-2,0-3,0,0,0-2,0-3,0s-3,0-4,0c-1,0-2,0-4,0s-3,0-3,0c0,0-1,0-2-1,0,0,0-1-1-2,0,0-1-1-2-1-1,0-2,0-3,0,0,0-2,0-4-2-2-2-4-4-6-7-2-3-3-6-5-9-2-3-3-6-5-9-2-3-4-6-6-8h-2c-4,0-6,1-7,4,0,0-2-1-3-2,0,0-2-2-3-2-4,1-9,3-14,4-5,0-1,1-15,1h-4c-1,0-2,0-4,0-2,0-4,2-5,3-2,1-3,2-5,2s-3,0-4-1c-1,0-2,0-2,1,0,0,0,1-2,1h-3c-3,0-5,0-8,0-3,0-5,0-8,0s-8,0-11-1c0,0-2,0-3,0,0,0-1,1-2,2,0,0,0,2-1,2,0,0,0,1-2,2,0,0-2,0-3,0,0,2-1,4-3,6-2,1-2,3-2,6-2,1-4,3-5,4-1,2-3,4-4,6-1,2-3,4-4,6s-3,3-5,4c0,1-1,3,0,6-2,2-5,3-8,5-3,1-6,2-9,2s-1-3-12-9c0-2,0-4,0-6s0-4,1-6,1-4,3-6c1-2,3-3,5-4,0-2,0-3-2-4-1,0-2-2-1-4,5-3,1-6,14-1,4-4,7-8,11-13,3-5,6-9,1-14,3-5,7-9,11-13v-6c6-6,1-13,11-21,2,0,4-1,4-3,0-2,1-3,1-6,0,0,2,0,2-1s1-1,2,0c2-5,4-9,6-13,2-4,4-8,6-12,2-4,4-8,6-12,2-4,3-9,4-14,3,0,4-2,5-4,0-2,0-5,1-7,3-3,5-6,7-1,1-4,3-8,4-12,1-4,2-8,4-12,1-4,4-8,6-11h0c0-2,0-2-1-3,0,0-1,0-1-2,0,0,0,0,0,0,2,0,4-3,5-5,1-2,3-4,5-5,4,3,8,5,11,6,3,0,7,1,12,2,3,3,4,6,4,1s0,8,2,11c2,6,3,12,5,18,2,6,3,12,4,18,0,4,2,7,3,11,2,3,3,7,3,1,0,3,0,6,0,9,0,3,0,6,1,9l2,5c0,2,2,4,2,7,0,2,1,5,2,7,2,6,3,12,4,19,1,7,3,13,6,18,0,2,2,3,5,4,2,0,4,1,7,2,3,0,5,0,7,0,2,0,5,0,6,0h3c1,0,2,0,4,0,0,2,1,3,1,4s0,4-2,6c-2,1-2,3-2,5s0,2,1,3c0,0-2,0-4,0s-9,0-13,2c2,3,4,6,6,8,3,2,5,4,8,6,2-2,4-2,6-2s5,0,7,2c2,1,4,2,7,2s3,0,4,0c2,2,3,4,4,5,0,2,2,4,4,5Zm-92-47c0-3-1-6-2-7s-2-3-2-5c0-3-1-6-2-9,0-3,0-6-1-9-1-7-3-13-5-2-2-7-4-13-6-19,0-1,1-2,1-3h0c-2-3-3-5-4-8,0-3-2-6-2-8,0-3-2-5-3-8-1-2-3-4-5-6,0,1,0,3,0,4s0,3,0,4,0,2,0,4c-2,0-3,2-4,5s-2,4-4,5c-2,6-4,12-7,18s-6,11-9,17c-3,5-6,11-9,17s-5,11-7,17c-3,2-4,4-5,7,0,3-1,5-1,8,2,0,4,2,6,2,2,0,4,0,7,0s4,0,6,0c2,0,4,1,5,3,3,0,5-1,8-2,3,0,6-1,7-2,4,1,8,2,13,2s5,0,7,0c2,0,4,0,7-1,2,0,3,1,4,2,0,0,2,1,4,1,0,0,2-2,2-2,0,0,0-2,1-2Z"/><path class="cls-1" d="m1367,695c0,3-2,5-4,7l-5,6c-2,2-3,4-4,6-1,2-1,5-1,8,0,0,0,0-1,0,0,0-1,0-1,0-3,0-6,0-7,2-2,1-4,3-7,4,0-1,0-2-1-3,0-1-1-2-3-2-5,0-9,2-14,2-5,0-9,1-14,2-2,0-4,0-6,2-2,0-4,1-7,2-1,0-2,0-4,0-1,0-3,0-4,0-5,0-1,0-15,1-5,0-1,2-15,5-2,0-4,0-6,0-2,0-4,0-6,0s-1,0-15,1-11,3-15,5c0,0-2,0-3,0-1,0-2,0-4,0s0,0,0,0c0,0,0,0,0,0,0,2,0,3,0,5,0,2,2,3,4,4,0,2-1,4-1,7s0,7,0,1c0,3,0,7,0,1s0,7-1,9c2,6,3,12,3,19s0,5,0,7c0,2,0,5,0,7s0,4,2,5c2,1,2,3,2,5s0,2,0,2c3,0,5-1,8-2,3-1,5-2,8-2s3,0,5,0,3,1,4,2c0,0,0,2,0,3,0,1,0,2,0,4s0,4,0,6c0,2,0,4,0,6-2,3-3,5-5,7-2,2-3,5-4,8-3,0-6,0-8,2-2,1-4,3-6,4-2,1-4,3-6,4-2,1-4,2-6,2s-5,0-6-1-2-2-3-3c0,0-1-2-2-3,0,0-2-1-3,0,0-3-1-5-2-7-1-2-2-4-4-7-1-2-3-4-4-7-1-2-2-5-3-7-1-5-2-1-1-16,0-5,0-11-3-16,0-3,0-6,0-8,0-3,0-6,0-8s0-11,0-16c0-5,0-11,0-17-1-2-2-4-2-6,0-2,0-4,0-7,0,0-1-1-2-2,0,0-1-1-1-2-2,0-3,0-4,0-3,0-5,0-7,2-2,1-4,2-5,2s-3,0-4,0c-1,0-3,0-4,0s-2,0-2,0c0,0,0,0-1,1,0,0-2,0-4,1-2,0-5,0-7,1s-5,0-8,0c-2,0-4,0-5,0-3,0-6,0-7-2-2-1-4-3-6-4,0-1,0-2,0-2,0-2,0-4-2-5-1-1-2-2-2-3s0-4,2-5c2-1,3-3,3-6,4-2,9-3,14-4,5,0,9-2,14-2,5,0,1-1,15-2,5,0,1-2,14-4,1,0,3,0,4,0,1,0,3,0,4,0,6,0,12,0,17-2,6-1,12-2,18-2s3,0,5,0c2,0,3,0,5,0,8-1,16-2,23-4,8-1,16-3,24-4,4,0,8,0,12-1s8,0,12-1c1,0,2,0,3-1,0,0,1-2,1-3,2,0,4,1,6,1s7,0,1-2c3-1,6-2,1-2s1,0,2,0c0,0,1,0,2,0s2,0,2-2c0-1,1-2,3-2,1,0,3,0,6,0,3,0,5,0,8,0,3,0,5,0,8-1,2,0,4-1,5-2l2-3c4,0,6,2,8,5,2,3,3,6,3,9,0,0,2,1,3,1,1,0,3,0,4,0h0Z"/><path class="cls-1" d="m139,843c0,2-2,3-4,4-1,1-3,3-4,4-1,0-3,0-5,0s-3,0-5,0c-1,0-3,0-4,0-1,0-2,0-3,1-2,0-3-1-4-2,0-1-2-2-4-2,0,0-2,0-2,0-3-3-6-7-8-11-2-4-5-7-7-11,0-7,0-15-2-22,0-2,0-4,0-5,0-2,0-3,0-5,0-2,0-4,0-6,0-2,0-4,0-5,0-6,2-11,3-17,0-5,2-11,3-17,0-5,1-1,1-16s0-11-3-16h0c0-3,0-4,1-5,0-1,0-2,1-4,0-2,0-4-1-5,0-2,2-3,3-3,1,0,2-2,2-3,0,0,0-2,0-2,2,0,3-1,5-2,2,0,3,0,5,0,3,0,5,1,7,2,2,1,4,3,6,4,3,9,4,19,4,3,0,1-2,21-3,31-1,11-2,21-3,31,0,1,1,19,5,28h0c0,0,2,0,2,0s1-1,2-1c0,0,1,0,1,0,0,4,2,8,4,11s4,7,6,11Z"/><path class="cls-1" d="m1603,713c-1,2-2,4-2,6,0,2,0,4,0,6s0,5,0,7c0,2,0,4,0,7v4c0,1,0,3-2,4,0,1-1,3-2,4-3,7-4,14-4,22h0c0,3-2,5-3,7,0,2-2,4-2,6,0,2-1,4-2,6,0,2,0,4,0,7-3,7-6,13-11,19-4,6-9,11-13,17-4,2-8,4-11,6-3,3-7,5-1,8-6,2-12,4-18,7-6,3-11,6-16,1-4,0-7,0-11,2-4,0-7,2-11,4h-4c-2,0-3,0-4-1-3,1-5,2-8,3-3,0-5,0-8,0s-7,0-1,0c-3,0-7-1-1-2-2-3-5-5-8-6s-7-3-9-4c-6-8-1-15-12-23-3-7-5-16-8-25,0-3,1-5,2-8,0-3,1-6,1-9,4-1,8-19,14-28,6-8,12-16,2-24,0-1,0-2,0-3,0,0,0-2,0-4,0,0,0,0,1,0s3,0,3-1c0,0,0-2,0-3,7-4,13-1,19-16,6-6,12-11,2-15,0-2,2-3,3-4,1-1,2-3,3-4,6-2,12-4,17-8,5-4,1-7,16-9,3-2,6-3,9-4,3,0,6-1,9-2,1,0,2,0,3,0,0,0,2,0,3,0s7,0,1,2c3,1,7,2,1,2s2,0,2,0c0,0,1,0,2,0,3,4,8,7,13,9,1,3,3,5,4,8,2,2,3,4,5,6s3,4,5,7c1,2,2,5,3,9Zm-29,15c0,0,0-2,0-3-2,0-4-1-6-2-2,0-4-1-6-1s-3,0-4,0c0-1,0-2-2-3s-2-1-3-2c-1,0-2,0-3-1-1,0-2,0-3-2,0-2-1-3-2-5,0-2-2-3-4-4-2,2-4,3-6,4-2,1-5,2-7,3-2,0-5,2-7,4-2,1-4,3-6,5h-5c-1,2-3,4-5,5-2,1-4,3-6,5-3,2-6,3-9,6-3,2-5,5-8,7-3,2-5,5-7,7-2,3-5,5-8,7-3,5-5,1-8,14-3,4-6,8-8,12s-5,9-7,13c-2,5-3,11-3,18v3c0,0,0,2,0,3,3,3,5,6,6,9,2,3,4,5,8,7,4,2,8,2,12,2,4,0,9,0,13,1,9-2,18-5,27-9,9-4,17-9,25-15,1,0,3-2,4-3,2-1,3-2,4-3,0,0,2-2,2-3,0-1,1-2,2-3,2-3,3-5,5-8,2-3,4-5,6-7,0-4,2-8,4-12,2-4,3-8,5-12,2-4,3-8,4-12,1-4,2-8,2-13s0-2,0-3c0-1,0-2,0-3,2-2,2-4,2-7Z"/><path class="cls-1" d="m1816,69c0,2,0,4-2,6,0,2,0,4,0,7-2,0-3,0-5,2s-2,2-3,4c0,1-1,3-2,4,0,1-2,3-2,4,2,7,2,14,3,21,0,7,0,14,1,21,0,9,2,18,5,27,2,9,3,18,3,27s0,5,0,8c0,2,0,5,0,7s0,3,0,5c0,2,0,3,0,5,0,6,0,11-2,17-1,6-3,11-3,17-2,2-4,4-6,7-2,3-3,5-5,7-2,2-4,4-6,6-2,2-5,3-9,3,0,2-2,3-3,4-2,0-3,2-4,4h0c-5,0-9,0-13-2-4-1-7-3-1-5-3-2-6-4-9-6-3-2-7-4-11-5-5-4-1-9-15-15-4-5-1-1-15-15-1-4-3-7-5-1-2-3-4-5-7-9,0-1-2-3-2-4,0-1-1-3-2-4,0-2-2-3-3-3-1,0-2-1-3-2-2-6-4-12-7-17-3-5-6-1-1-15-1,2-2,4-3,7,0,2-1,5-2,7,0,2-1,5-2,7,0,2-2,5-3,7h0c0,2,0,2,1,3,0,0,1,0,1,2s0,0,0,0c0,0,0,0,0,0,0,0-2,2-2,3,0,1-2,2-3,2,0,0,0,2,0,3v3c0,6,0,11-2,17-1,6-2,11-2,17v4c0,1,0,3,0,4,0,1,0,2,2,4,0,1,1,2,1,3s0,3-2,4c1,0,3,2,5,3s3,2,5,4,3,3,4,5c0,2,1,3,1,5s-1,6-3,7c-2,1-5,2-8,3-3,0-6,2-9,2-3,0-6,2-8,4h0c-2,0-4,0-5-2-1-1-3-2-5-2-4-6-6-13-8-2-1-8-2-15-2-22s0-17,2-25c1-8,3-17,5-25s4-16,7-24c2-8,5-16,7-24h0c0-2,0-3,0-3,0,0,0,0,0-2s0,0,0,0c0-2,1-4,2-6,0-2,1-4,2-6,1-5,2-11,2-17,0-6,0-11,0-17,0-6,0-11,0-17,0-6,0-11,2-17,2-2,3-3,4-5,1-2,3-3,5-5,4,0,8,0,12,2,4,0,8,3,11,5,2,8,4,17,5,25,0,8,2,17,5,25h0c0,2,0,2,2,2,1,0,2,0,2,1,0,0,0,1,0,2,0,0,0,2,0,2v5c0,2,0,3,1,5s2,3,4,3c0,6,2,12,4,17,2,5,4,1,7,15,3,5,5,1,8,15,3,5,6,1,9,15,5,4,9,8,13,13,4,5,7,9,11,14,4,4,8,8,12,12,5,3,11,5,18,6,0,0,2-2,2-3v-4c2-1,3-3,3-4,0-1,2-2,3-2,0-5,0-11,1-17,0-6,2-11,4-16,0-2-1-4-1-6s0-4,0-6,0-4,0-5,0-7-2-9c0-1,0-3,0-4,0-1,0-3,2-4-2-4-3-8-4-12,0-4-1-9-1-13s0-5,0-8c-1-3-2-6-2-1v-12c-2-4-2-8-3-11,0-4-2-6-4-8,1-2,2-4,2-6s0-8-2-11-2-7-2-11,0-5,2-8c4,0,9,0,13,1,4,0,8,1,12,1,1,2,3,3,4,4,2,0,3,2,5,3s3,2,5,3c2,0,3,2,4,4Z"/></svg>