<?xml version="1.0" encoding="UTF-8"?>
<svg id="Layer_1" data-name="Layer 1" xmlns="http://www.w3.org/2000/svg" viewBox="0 0 1865.56 569.77">
  <defs>
    <style>
      .cls-1 {
        fill: #00a9e9;
      }

      .cls-2 {
        fill: #00884a;
      }

      .cls-3 {
        fill: #008e85;
      }

      .cls-4 {
        fill: #4ab347;
      }
    </style>
  </defs>
  <polygon class="cls-1" points="0 552.87 467.73 552.87 467.73 394.29 220.65 394.29 220.65 328.29 376.27 328.29 376.27 230.96 220.65 230.96 220.65 164.95 467.73 164.95 467.73 16.87 0 16.87 0 552.87"/>
  <path class="cls-3" d="m832.89,16.87h-320.96v536h220.63v-172.24h103.49c121.97,0,188.59-70.81,188.59-164.22v-39.4c0-92.54-69.82-160.15-191.75-160.15Zm-25.72,216.46c0,23.38-11.24,35.44-39.31,35.44h-35.3v-111.86h35.3c28.06,0,39.31,11.25,39.31,35.41v41.01Z"/>
  <rect class="cls-2" x="1064.84" y="272.81" width="219.83" height="280.07"/>
  <path class="cls-4" d="m1733.99,353.3c-22.46,30.54-57.76,55.51-101.89,55.51-51.34,0-78.65-32.24-78.65-82.09v-86.93c0-49.89,27.31-82.09,78.65-82.09,44.13,0,79.43,24.98,101.89,55.55l130.79-87.75C1831.89,53.91,1739.61,0,1613.65,0c-172.52,0-284.86,96.58-284.86,234.95v99.81c0,138.37,112.35,235.01,284.86,235.01,125.98,0,216.61-55.55,251.91-127.13l-131.57-89.35Z"/>
  <rect class="cls-2" x="1064.84" y="16.87" width="219.83" height="215.43"/>
</svg>