<svg viewBox="0 0 1865.56 569.77" xmlns="http://www.w3.org/2000/svg"><path d="m0 552.87h467.73v-158.58h-247.08v-66h155.62v-97.33h-155.62v-66.01h247.08v-148.08h-467.73z" fill="#00a9e9"/><path d="m832.89 16.87h-320.96v536h220.63v-172.24h103.49c121.97 0 188.59-70.81 188.59-164.22v-39.4c0-92.54-69.82-160.15-191.75-160.15zm-25.72 216.46c0 23.38-11.24 35.44-39.31 35.44h-35.3v-111.86h35.3c28.06 0 39.31 11.25 39.31 35.41z" fill="#008e85"/><path d="m1064.84 272.81h219.83v280.07h-219.83z" fill="#00884a"/><path d="m1733.99 353.3c-22.46 30.54-57.76 55.51-101.89 55.51-51.34 0-78.65-32.24-78.65-82.09v-86.93c0-49.89 27.31-82.09 78.65-82.09 44.13 0 79.43 24.98 101.89 55.55l130.79-87.75c-32.89-71.59-125.17-125.5-251.13-125.5-172.52 0-284.86 96.58-284.86 234.95v99.81c0 138.37 112.35 235.01 284.86 235.01 125.98 0 216.61-55.55 251.91-127.13l-131.57-89.35z" fill="#4ab347"/><path d="m1064.84 16.87h219.83v215.43h-219.83z" fill="#00884a"/></svg>